<svg width="95" height="95" viewBox="0 0 95 95" fill="none" xmlns="http://www.w3.org/2000/svg">
<path fill-rule="evenodd" clip-rule="evenodd" d="M90.1 15H80V4.9C80 2.2 77.8 0 75.1 0H74.95C72.2 0 70 2.2 70 4.9V15H59.95C57.25 15 55.05 17.2 55 19.9V20.05C55 22.8 57.2 25 59.95 25H70V35.05C70 37.75 72.2 40 74.95 39.95H75.1C77.8 39.95 80 37.75 80 35.05V25H90.1C92.8 25 95 22.8 95 20.1V19.9C95 17.2 92.8 15 90.1 15ZM65 35.05V30H59.95C57.3 30 54.8 28.95 52.9 27.1C51.05 25.2 50 22.7 50 19.9C50 18.1 50.5 16.45 51.35 15H10C4.5 15 0 19.5 0 25V85C0 90.5 4.5 95 10 95H70C75.5 95 80 90.5 80 85V43.6C78.5 44.45 76.8 45 74.9 45C69.45 44.95 65 40.5 65 35.05ZM64.8 85H15C12.95 85 11.75 82.65 13 81L22.9 67.85C23.95 66.45 26 66.55 27 67.95L35 80L48.05 62.6C49.05 61.3 51 61.25 52 62.55L66.75 80.95C68.05 82.6 66.9 85 64.8 85Z" fill="#1D1D1D"/>
</svg>
