<svg width="54" height="54" viewBox="0 0 54 54" fill="none" xmlns="http://www.w3.org/2000/svg">
<path d="M33.75 18H33.7725" stroke="black" stroke-width="4" stroke-linecap="round" stroke-linejoin="round"/>
<path d="M38.25 9H15.75C12.0221 9 9 12.0221 9 15.75V38.25C9 41.9779 12.0221 45 15.75 45H38.25C41.9779 45 45 41.9779 45 38.25V15.75C45 12.0221 41.9779 9 38.25 9Z" stroke="black" stroke-width="4" stroke-linecap="round" stroke-linejoin="round"/>
<path d="M9 33.75L18 24.75C19.0261 23.7626 20.1901 23.2428 21.375 23.2428C22.5599 23.2428 23.7239 23.7626 24.75 24.75L36 36" stroke="black" stroke-width="4" stroke-linecap="round" stroke-linejoin="round"/>
<path d="M31.5 31.5L33.75 29.25C34.7761 28.2626 35.9401 27.7428 37.125 27.7428C38.3099 27.7428 39.4739 28.2626 40.5 29.25L45 33.75" stroke="black" stroke-width="4" stroke-linecap="round" stroke-linejoin="round"/>
</svg>
