<svg width="54" height="54" viewBox="0 0 54 54" fill="none" xmlns="http://www.w3.org/2000/svg">
<path d="M5.90625 14.3438C5.90627 13.6724 6.17296 13.0286 6.64765 12.5539C7.12235 12.0792 7.76618 11.8125 8.4375 11.8125H45.5625C46.2338 11.8125 46.8777 12.0792 47.3524 12.5539C47.8271 13.0286 48.0938 13.6724 48.0938 14.3438C48.0938 15.0151 47.8271 15.6589 47.3524 16.1336C46.8777 16.6083 46.2338 16.875 45.5625 16.875H8.4375C7.76618 16.875 7.12235 16.6083 6.64765 16.1336C6.17296 15.6589 5.90627 15.0151 5.90625 14.3438ZM8.4375 25.3125H35.4375C36.1088 25.3125 36.7527 25.0458 37.2274 24.5711C37.7021 24.0964 37.9688 23.4526 37.9688 22.7812C37.9688 22.1099 37.7021 21.4661 37.2274 20.9914C36.7527 20.5167 36.1088 20.25 35.4375 20.25H8.4375C7.76617 20.25 7.12234 20.5167 6.64764 20.9914C6.17293 21.4661 5.90625 22.1099 5.90625 22.7812C5.90625 23.4526 6.17293 24.0964 6.64764 24.5711C7.12234 25.0458 7.76617 25.3125 8.4375 25.3125ZM45.5625 28.6875H8.43874C7.76741 28.6875 7.12357 28.9542 6.64887 29.4289C6.17417 29.9036 5.90749 30.5474 5.90749 31.2188C5.90749 31.8901 6.17417 32.5339 6.64887 33.0086C7.12357 33.4833 7.76741 33.75 8.43874 33.75H45.5625C46.2338 33.75 46.8777 33.4833 47.3524 33.0086C47.8271 32.5339 48.0938 31.8901 48.0938 31.2188C48.0938 30.5474 47.8271 29.9036 47.3524 29.4289C46.8777 28.9542 46.2338 28.6875 45.5625 28.6875ZM35.4375 37.125H8.43874C8.10633 37.125 7.77717 37.1905 7.47007 37.3177C7.16296 37.4449 6.88392 37.6313 6.64887 37.8664C6.41382 38.1014 6.22737 38.3805 6.10017 38.6876C5.97296 38.9947 5.90749 39.3238 5.90749 39.6562C5.90749 39.9887 5.97296 40.3178 6.10017 40.6249C6.22737 40.932 6.41382 41.2111 6.64887 41.4461C6.88392 41.6812 7.16296 41.8676 7.47007 41.9948C7.77717 42.122 8.10633 42.1875 8.43874 42.1875H35.4375C36.1088 42.1875 36.7527 41.9208 37.2274 41.4461C37.7021 40.9714 37.9688 40.3276 37.9688 39.6562C37.9688 38.9849 37.7021 38.3411 37.2274 37.8664C36.7527 37.3917 36.1088 37.125 35.4375 37.125Z" fill="black"/>
</svg>
