<svg width="111" height="132" viewBox="0 0 111 132" fill="none" xmlns="http://www.w3.org/2000/svg">
<path d="M40.5115 35.038C40.6592 34.9566 40.8904 34.8869 41.2051 34.829C42.0968 34.6648 42.6488 35.1597 42.8613 36.3137C42.9771 36.9431 42.9318 37.5073 42.7254 38.0062C42.5404 38.4741 42.1691 38.8136 41.6114 39.0247C39.3069 39.9099 37.0514 40.8402 34.8449 41.8158L34.9006 42.7817C35.1173 48.0834 34.3511 52.1696 32.6019 55.0404C30.8837 57.9325 28.3855 59.6803 25.1072 60.2838C22.9305 60.6844 21.1399 60.4582 19.7356 59.605C18.3623 58.7732 17.5236 57.5311 17.2195 55.8789C16.7126 53.1252 17.4939 50.4461 19.5633 47.8418C21.6327 45.2375 25.0199 42.6482 29.7249 40.0739L29.4907 34.3822C29.4797 33.7335 29.4564 32.8701 29.4206 31.7921C28.7866 35.2711 27.6596 37.9866 26.0396 39.9388C24.4196 41.891 22.4294 43.0843 20.069 43.5188C17.8136 43.934 15.9703 43.5683 14.5391 42.4218C13.103 41.2491 12.1847 39.5743 11.784 37.3975C11.6054 36.4272 11.5148 35.3457 11.5122 34.1531C11.5047 32.9343 11.5405 31.2873 11.6194 29.2121C11.6797 27.3301 11.7027 25.8345 11.6884 24.7255C11.7002 23.6116 11.6289 22.635 11.4745 21.7958C11.2427 20.5369 10.6417 19.9968 9.67134 20.1754C8.91078 20.3154 8.07598 20.8623 7.16694 21.8159C6.27929 22.7385 5.40091 24.0797 4.53178 25.8394C4.25634 26.4053 3.8957 26.7293 3.44985 26.8114C3.08269 26.8789 2.72348 26.7688 2.37224 26.481C2.04239 26.1621 1.83644 25.7797 1.75437 25.3339C1.60472 24.5209 1.80292 23.5354 2.34898 22.3774C4.34819 18.2133 7.14427 15.8006 10.7372 15.1393C12.337 14.8448 13.6721 15.1007 14.7424 15.9069C15.8389 16.7083 16.561 18.0531 16.9086 19.9414C17.1596 21.3052 17.2867 22.7324 17.29 24.2231C17.3146 25.6828 17.2806 27.5599 17.1878 29.8547C17.1144 31.2239 17.0739 32.3295 17.0662 33.1715C17.0537 33.9872 17.0957 34.6573 17.1922 35.1819C17.4384 36.5194 17.8507 37.4332 18.429 37.9233C19.0072 38.4134 19.8865 38.5498 21.0666 38.3325C22.4828 38.0719 23.7829 37.0327 24.9667 35.215C26.1719 33.3663 27.0726 30.7466 27.6686 27.356C28.2909 23.9606 28.4419 19.9198 28.1216 15.2337C28.0403 14.0556 28.1922 13.1871 28.5774 12.6281C28.9578 12.0429 29.5938 11.6683 30.4855 11.5042C32.3213 11.1662 33.4082 11.9152 33.7461 13.751C33.804 14.0657 33.8368 14.3173 33.8443 14.5057C34.0129 18.5147 34.1508 22.1363 34.258 25.3703C34.3433 27.3069 34.4121 29.3007 34.4643 31.3518C34.5427 33.3981 34.6259 35.4706 34.714 37.5693C36.5319 36.6924 38.4644 35.8486 40.5115 35.038ZM29.8952 44.3131C23.954 47.6844 21.273 50.9435 21.8523 54.0907C21.9875 54.825 22.3214 55.3872 22.8542 55.7772C23.418 56.1886 24.1195 56.317 24.9587 56.1625C28.6041 55.4915 30.2534 51.6359 29.9065 44.5957L29.8952 44.3131ZM59.6031 28.148C59.944 28.0852 60.2376 28.2074 60.484 28.5145C60.7303 28.8217 60.9018 29.2375 60.9983 29.762C61.23 31.0209 60.9873 31.8383 60.2702 32.2144C58.798 33.0548 57.1251 33.6881 55.2513 34.1143C55.1585 36.4091 54.5009 38.3604 53.2784 39.9682C52.0511 41.5499 50.5064 42.5121 48.6444 42.8548C47.0708 43.1445 45.6502 43.0128 44.3825 42.4598C43.141 41.902 42.1159 41.0468 41.3072 39.8942C40.4985 38.7415 39.959 37.4309 39.6886 35.9622C39.3218 33.969 39.3762 32.1288 39.8519 30.4414C40.3228 28.7279 41.1474 27.3153 42.3256 26.2036C43.499 25.0657 44.8987 24.3471 46.5247 24.0478C48.5179 23.6809 50.2456 24.0814 51.7079 25.2493C53.1915 26.3862 54.2241 27.945 54.8056 29.9258C56.0238 29.6202 57.4442 29.0876 59.0668 28.328C59.2669 28.2369 59.4457 28.1769 59.6031 28.148ZM48.1915 38.6269C49.0308 38.4725 49.6892 37.9988 50.1669 37.2059C50.6708 36.4081 50.9094 35.3474 50.8827 34.0237C49.9683 33.6226 49.2061 33.0173 48.5961 32.2076C48.0124 31.3932 47.6288 30.4877 47.4453 29.4911C47.3681 29.0715 47.3302 28.6446 47.3316 28.2105L47.1349 28.2467C46.0859 28.4398 45.3015 29.1129 44.7816 30.2661C44.2832 31.3882 44.2029 32.8672 44.5409 34.703C44.8064 36.1454 45.2845 37.1962 45.9752 37.8554C46.6922 38.5098 47.431 38.7669 48.1915 38.6269ZM63.5607 40.1091C62.3805 40.3264 61.3112 39.9674 60.3527 39.0321C59.4156 38.0658 58.7974 36.7696 58.4981 35.1436C58.136 33.1766 57.9365 31.356 57.8994 29.6817C57.8576 27.9812 57.9693 26.1575 58.2345 24.2106C58.352 23.3756 58.6154 22.7441 59.0247 22.3163C59.434 21.8885 60.15 21.5804 61.1729 21.3921C61.7498 21.2859 62.1601 21.3053 62.4037 21.4503C62.6735 21.5904 62.8423 21.8441 62.9098 22.2112C62.9485 22.421 62.9346 23.1557 62.8681 24.4152C62.7845 25.4338 62.7364 26.351 62.7239 27.1668C62.7062 30.0171 62.7819 31.9012 62.9509 32.8191C63.0522 33.3698 63.1902 33.7511 63.3648 33.963C63.5346 34.1487 63.7637 34.215 64.0522 34.1619C64.4455 34.0895 64.8583 33.6068 65.2905 32.7138C65.7488 31.816 66.1586 30.5068 66.5198 28.7864C66.9072 27.0611 67.2008 24.9734 67.4006 22.5234C67.4655 21.698 67.6765 21.0762 68.0333 20.6581C68.4164 20.2351 69.0407 19.9439 69.9061 19.7846C70.5093 19.6736 70.9434 19.675 71.2084 19.7889C71.4686 19.8766 71.6349 20.1171 71.7073 20.5105C71.828 21.1662 71.8309 23.023 71.7159 26.081C71.5995 29.5731 71.6137 31.7126 71.7585 32.4993C71.8502 32.9976 72.0276 33.3717 72.2905 33.6216C72.5485 33.8452 72.8481 33.9257 73.189 33.8629C73.7135 33.7664 74.2719 33.3382 74.8641 32.5784C75.4778 31.7876 76.255 30.5599 77.1959 28.8954C77.4431 28.4704 77.7633 28.2216 78.1567 28.1492C78.4977 28.0864 78.7889 28.1955 79.0304 28.4764C79.2981 28.7525 79.4827 29.1659 79.5841 29.7167C79.7772 30.7657 79.6777 31.6246 79.2856 32.2933C78.4137 33.8909 77.4042 35.2562 76.257 36.3892C75.1361 37.5175 73.7495 38.2337 72.0973 38.5378C70.8384 38.7695 69.8181 38.4557 69.0363 37.5964C68.2807 36.7322 67.7411 35.4216 67.4177 33.6644C67.3001 35.5298 66.8848 37.0298 66.1717 38.1643C65.4538 39.2726 64.5835 39.9209 63.5607 40.1091ZM91.1938 21.4382C91.7708 21.332 92.2946 21.4525 92.7652 21.7997C93.2572 22.1158 93.5587 22.5755 93.6698 23.1787C93.7325 23.5196 93.7214 23.9013 93.6365 24.3237C93.3955 25.3713 92.9551 26.2929 92.3152 27.0885C91.6753 27.8842 90.8964 28.3665 89.9785 28.5354C89.2442 28.6706 88.5665 28.5242 87.9454 28.0962C87.3506 27.6634 86.9711 27.0012 86.807 26.1095C86.7152 25.6112 86.6425 25.0688 86.5887 24.4821C86.564 24.0529 86.5371 23.7595 86.5081 23.6022C86.4695 23.3924 86.3881 23.2447 86.2639 23.1591C86.1659 23.0687 86.0513 23.0355 85.9202 23.0597C85.553 23.1272 85.1368 23.6648 84.6715 24.6724C84.2014 25.6537 83.7844 26.9235 83.4205 28.4818C83.0565 30.0401 82.8251 31.6553 82.7262 33.3275C82.6695 34.6395 82.4961 35.5391 82.2062 36.0263C81.9163 36.5135 81.3517 36.8343 80.5124 36.9888C79.5159 37.1722 78.7112 36.778 78.0985 35.8062C77.512 34.8296 77.0063 33.1874 76.5815 30.8795C75.9539 27.4701 75.8429 24.1418 76.2485 20.8948C76.3445 20.0908 76.6234 19.47 77.0852 19.0325C77.5683 18.564 78.2951 18.2404 79.2655 18.0618C79.79 17.9652 80.1692 17.9632 80.4032 18.0557C80.6371 18.1482 80.7879 18.3781 80.8555 18.7452C80.9327 19.1649 80.9098 20.1452 80.7867 21.6863C80.7176 22.7836 80.6767 23.7401 80.6642 24.5559C80.6517 25.3716 80.6992 26.3661 80.8067 27.5394C81.257 25.1246 81.8894 23.1102 82.704 21.4961C83.5186 19.8819 84.3818 18.6791 85.2935 17.8876C86.2053 17.0962 87.0808 16.6232 87.9201 16.4687C88.6806 16.3287 89.2986 16.4454 89.7741 16.8189C90.2709 17.1612 90.5966 17.7521 90.7511 18.5913C90.8428 19.0896 90.8724 20.0603 90.8397 21.5034L91.1938 21.4382ZM36.9426 116.185C33.8217 116.759 31.0035 116.695 28.4881 115.992C25.9678 115.263 23.8982 113.963 22.2794 112.092C20.6606 110.22 19.5953 107.895 19.0836 105.115C18.3739 101.26 18.4652 97.7045 19.3573 94.4492C20.2756 91.1891 21.8308 88.5167 24.023 86.4321C26.2103 84.3212 28.8251 82.9858 31.8673 82.4258C34.6998 81.9044 36.9855 82.2429 38.7245 83.4412C40.4586 84.6133 41.5454 86.3927 41.9847 88.7792C42.2792 90.379 42.2272 91.7172 41.8289 92.7938C41.4567 93.8655 40.7461 94.4979 39.6971 94.691C38.9628 94.8262 38.3544 94.7619 37.872 94.4982C37.3897 94.2345 37.0881 93.7749 36.9675 93.1192C36.924 92.8832 36.8968 92.4408 36.8858 91.7921C36.8984 90.9763 36.8612 90.3324 36.7743 89.8603C36.335 87.4738 34.8434 86.5146 32.2995 86.9829C30.5685 87.3015 29.0201 88.1695 27.6541 89.5869C26.2881 91.0042 25.3227 92.9037 24.7579 95.2853C24.1882 97.6407 24.1809 100.326 24.7361 103.342C25.3154 106.49 26.6429 108.767 28.7187 110.174C30.7896 111.556 33.5429 111.93 36.9785 111.298C38.6832 110.984 40.3624 110.458 42.0161 109.72C43.6911 108.95 45.5088 107.924 47.4689 106.642C47.8334 106.412 48.1467 106.273 48.409 106.224C48.8286 106.147 49.1723 106.247 49.44 106.523C49.7077 106.799 49.8875 107.186 49.9792 107.684C50.2737 109.284 49.6254 110.624 48.0345 111.703C46.3221 112.859 44.4924 113.819 42.5454 114.584C40.6198 115.318 38.7522 115.852 36.9426 116.185ZM68.1613 101.165C68.5022 101.102 68.7935 101.211 69.035 101.492C69.3027 101.768 69.4873 102.182 69.5886 102.733C69.7817 103.782 69.6822 104.641 69.2902 105.309C68.3396 106.921 67.3039 108.291 66.1829 109.42C65.0882 110.543 63.7278 111.254 62.1018 111.554C60.7643 111.8 59.6846 111.605 58.8627 110.97C58.036 110.309 57.4875 109.244 57.2172 107.776C57.082 107.041 57.0242 105.696 57.0438 103.74C57.0806 102.025 57.0411 100.853 56.9252 100.224C56.848 99.804 56.6651 99.6207 56.3766 99.6738C56.0357 99.7366 55.6326 100.272 55.1673 101.279C54.6972 102.261 54.2801 103.53 53.9162 105.089C53.5523 106.647 53.3209 108.262 53.222 109.934C53.1099 112.124 52.0704 113.4 50.1034 113.762C49.3166 113.907 48.7414 113.728 48.3778 113.226C48.0355 112.692 47.7292 111.691 47.4589 110.223C47.3044 109.383 47.1944 108.712 47.1289 108.209L46.589 105.055C45.8455 101.016 45.4772 96.7317 45.4841 92.2023C45.5171 87.6681 46.0608 83.7719 47.115 80.5139C48.1907 77.2248 49.8563 75.3727 52.1117 74.9575C53.3181 74.7355 54.385 75.0814 55.3125 75.9953C56.2613 76.8781 56.8878 78.1456 57.1919 79.7978C57.6795 82.4467 57.4127 85.3428 56.3916 88.4863C55.3656 91.6035 53.4586 95.3846 50.6705 99.8294C50.8428 101.208 51.0618 102.618 51.3273 104.06C51.7824 101.672 52.4066 99.6861 53.1998 98.103C54.0143 96.4889 54.8775 95.2861 55.7893 94.4946C56.7273 93.6983 57.629 93.2205 58.4945 93.0612C60.1992 92.7474 61.2084 93.4428 61.5222 95.1475C61.7105 96.1704 61.7624 98.0724 61.6778 100.854C61.5995 103.227 61.6279 104.781 61.7631 105.515C61.9562 106.564 62.433 107.019 63.1936 106.879C63.7181 106.782 64.2765 106.354 64.8687 105.594C65.4824 104.804 66.2596 103.576 67.2005 101.911C67.4476 101.486 67.7679 101.238 68.1613 101.165ZM52.0025 79.0042C51.5304 79.0911 51.1314 79.8695 50.8055 81.3395C50.4747 82.7832 50.2463 84.7097 50.1204 87.119C50.0159 89.4972 50.0418 92.0683 50.1981 94.8324C51.4717 92.6186 52.4254 90.2874 53.0593 87.8388C53.7194 85.3855 53.8805 83.2409 53.5426 81.405C53.3881 80.5658 53.178 79.9402 52.9124 79.5281C52.6467 79.1161 52.3434 78.9414 52.0025 79.0042ZM83.6197 98.3196C83.9606 98.2569 84.2519 98.3659 84.4934 98.6469C84.7611 98.923 84.9457 99.3364 85.0471 99.8871C85.2402 100.936 85.1407 101.795 84.7486 102.464C83.9954 103.823 82.8189 105.164 81.219 106.489C79.6453 107.809 77.8487 108.655 75.8293 109.027C73.0756 109.534 70.8006 109.18 69.0043 107.965C67.208 106.75 66.0709 104.844 65.593 102.248C65.2599 100.438 65.3312 98.6899 65.807 97.0025C66.2779 95.289 67.0976 93.8501 68.2662 92.686C69.461 91.5171 70.9107 90.7757 72.6154 90.4619C74.1365 90.1819 75.4405 90.4164 76.5274 91.1653C77.6094 91.8881 78.2929 93.0231 78.5777 94.5704C78.9108 96.38 78.5424 98.0612 77.4724 99.6138C76.4239 101.135 74.4223 102.561 71.4676 103.892C72.3453 104.977 73.7021 105.351 75.5379 105.013C76.7181 104.796 77.9808 104.143 79.326 103.055C80.6927 101.936 81.8036 100.606 82.6589 99.0659C82.9061 98.6408 83.2263 98.392 83.6197 98.3196ZM72.6563 94.4402C71.6859 94.6189 70.9636 95.3348 70.4893 96.588C70.0412 97.8364 69.9644 99.2605 70.2589 100.86L70.2734 100.939C71.7531 100.287 72.8713 99.5118 73.6278 98.6133C74.3843 97.7149 74.6733 96.7804 74.4946 95.8101C74.4029 95.3118 74.1863 94.9449 73.8447 94.7096C73.5245 94.4431 73.1283 94.3533 72.6563 94.4402ZM96.4175 93.6456C97.1518 93.5104 97.6204 93.9936 97.8231 95.0951C98.2045 97.1669 96.7692 98.5022 93.5172 99.1008C92.8877 99.2166 91.9612 99.2652 90.7376 99.2464C91.3778 100.81 91.9863 102.569 92.563 104.523C93.1611 106.447 93.5784 108.051 93.815 109.336C94.3363 112.168 94.2757 114.417 93.6329 116.08C92.9902 117.744 91.9213 118.714 90.4265 118.989C88.5382 119.336 86.9413 118.248 85.6359 115.722C84.3567 113.192 83.2199 109.226 82.2254 103.823C81.2986 98.7875 80.8973 93.5876 81.0215 88.2232C81.1672 82.8276 81.8727 78.2645 83.1383 74.5338C84.4252 70.772 86.2095 68.6811 88.4912 68.2611C89.7238 68.0342 90.7824 68.4087 91.6671 69.3847C92.5779 70.3559 93.2047 71.7725 93.5475 73.6345C94.6819 79.7976 92.233 87.1898 86.2007 95.8109C86.4115 98.4294 86.6956 100.709 87.0528 102.65C87.55 105.351 88.1511 108.101 88.8561 110.9C89.5659 113.724 90.1306 115.098 90.5502 115.021C91.337 114.876 91.4793 113.44 90.9773 110.712C90.6007 108.667 90.092 106.713 89.4511 104.852C88.8364 102.986 88.0976 101.034 87.2345 98.9964C87.1455 98.6603 87.1707 98.2083 87.3102 97.6403C87.4759 97.0675 87.7062 96.5506 88.0009 96.0896C88.2957 95.6287 88.5873 95.3716 88.8758 95.3185C89.4003 95.222 90.0345 95.1323 90.7785 95.0496C91.0194 95.0324 91.2972 94.9948 91.6119 94.9369C92.6609 94.7438 93.8111 94.4372 95.0624 94.017C95.2674 93.9522 95.4854 93.8849 95.7167 93.8153C95.9479 93.7456 96.1815 93.689 96.4175 93.6456ZM88.3819 72.3077C87.9099 72.3946 87.467 73.3031 87.0534 75.0333C86.666 76.7586 86.3751 79.0084 86.1808 81.7827C85.9817 84.5309 85.9033 87.4194 85.9457 90.4485C87.6045 87.6757 88.7612 84.9005 89.4158 82.1227C90.0656 79.3188 90.1961 76.7866 89.8071 74.5264C89.5126 72.9266 89.0376 72.187 88.3819 72.3077Z" fill="black"/>
</svg>
